<?xml version="1.0" standalone="no"?>
<!DOCTYPE svg PUBLIC "-//W3C//DTD SVG 20010904//EN"
 "http://www.w3.org/TR/2001/REC-SVG-20010904/DTD/svg10.dtd">
<svg version="1.0" xmlns="http://www.w3.org/2000/svg"
 width="210.000000pt" height="210.000000pt" viewBox="0 0 210.000000 210.000000"
 preserveAspectRatio="xMidYMid meet">
<metadata>
Created by potrace 1.14, written by Peter Selinger 2001-2017
</metadata>
<g transform="translate(0.000000,210.000000) scale(0.100000,-0.100000)"
fill="#000000" stroke="none">
<path d="M2009 2003 c-1 -5 -1 -12 0 -16 1 -5 -3 -6 -9 -2 -18 11 -40 -15 -36
-41 3 -14 1 -22 -5 -19 -5 4 -7 11 -4 16 10 16 -4 10 -30 -13 -13 -11 -22 -25
-19 -30 3 -5 2 -8 -3 -7 -21 4 -34 -2 -27 -13 4 -7 3 -8 -4 -4 -6 4 -27 -8
-47 -25 -27 -25 -32 -35 -23 -42 9 -6 8 -7 -4 -4 -16 6 -43 -15 -33 -24 2 -3
-5 -6 -17 -6 -12 -1 -24 -6 -27 -10 -3 -5 -13 -8 -21 -8 -8 1 -23 -3 -33 -8
-12 -5 -23 -4 -32 3 -34 29 -82 -25 -52 -58 24 -28 7 -55 -38 -59 -21 -1 -39
-4 -39 -5 -1 -2 -15 -21 -32 -43 -46 -60 -50 -80 -20 -110 43 -42 97 -18 110
50 l6 30 19 -31 c11 -17 31 -34 45 -38 30 -7 76 2 76 15 0 5 7 9 15 9 9 0 18
6 21 14 3 8 15 17 27 20 19 5 20 8 7 17 -13 9 -12 10 3 5 25 -8 73 24 55 36
-9 7 -8 8 5 4 22 -7 80 33 73 51 -3 7 1 10 8 7 21 -8 48 44 63 119 5 29 31 74
57 100 41 41 55 70 45 95 -5 13 -13 21 -18 17 -5 -3 -12 -1 -16 5 -7 12 -44
14 -46 3z m61 -37 c0 -3 -4 -8 -10 -11 -5 -3 -10 -1 -10 4 0 6 5 11 10 11 6 0
10 -2 10 -4z m-41 -27 c-5 -10 -14 -19 -20 -19 -6 0 -8 -4 -5 -9 3 -5 -1 -11
-9 -14 -16 -7 -49 -67 -59 -110 -5 -22 -4 -27 6 -21 7 4 5 -1 -4 -12 -9 -10
-18 -26 -20 -34 -2 -8 -16 -25 -33 -38 -16 -13 -29 -29 -27 -35 2 -7 0 -9 -3
-5 -11 11 -47 -11 -39 -24 4 -7 3 -8 -4 -4 -15 9 -94 -43 -85 -57 3 -5 2 -7
-4 -4 -6 4 -19 0 -29 -8 -25 -19 -37 -19 -65 4 l-23 19 35 -4 c31 -4 39 1 63
31 16 19 34 35 42 35 8 0 14 5 14 10 0 5 5 9 12 7 6 -1 16 11 22 27 10 25 8
31 -17 50 -28 22 -28 23 -5 22 14 -1 22 4 20 12 -1 8 1 11 6 8 5 -3 16 3 24
13 9 10 41 38 72 61 31 23 56 47 56 53 0 6 3 7 6 4 9 -9 46 34 41 47 -3 6 6
12 19 12 20 2 22 -1 13 -17z m-182 -104 c0 -8 -4 -12 -9 -9 -5 3 -6 10 -3 15
9 13 12 11 12 -6z m133 -31 c0 -8 -19 -13 -24 -6 -3 5 1 9 9 9 8 0 15 -2 15
-3z m-286 -124 c-40 -31 -64 -38 -64 -19 0 5 4 8 9 5 5 -3 12 1 15 9 3 9 16
20 28 25 46 18 51 9 12 -20z m16 -40 c0 -5 -2 -10 -4 -10 -3 0 -8 5 -11 10 -3
6 -1 10 4 10 6 0 11 -4 11 -10z m-85 -32 c5 4 5 1 1 -6 -6 -10 -11 -10 -22 -1
-8 6 -14 14 -14 16 0 3 6 0 13 -6 8 -6 18 -7 22 -3z m-61 -34 c3 -8 2 -12 -4
-9 -6 3 -10 10 -10 16 0 14 7 11 14 -7z m104 -79 c-3 -3 -9 2 -12 12 -6 14 -5
15 5 6 7 -7 10 -15 7 -18z"/>
<path d="M1152 1800 c-44 -18 -42 -85 4 -96 51 -13 85 54 46 89 -21 19 -19 19
-50 7z"/>
<path d="M696 1739 c-18 -26 -7 -54 24 -62 21 -5 50 16 50 36 -1 39 -52 57
-74 26z"/>
<path d="M800 1553 c-15 -19 -19 -35 -15 -53 9 -34 20 -43 54 -46 57 -4 87 61
46 102 -31 31 -59 30 -85 -3z"/>
<path d="M1125 1509 c-22 -18 -26 -28 -23 -58 3 -20 8 -44 12 -53 6 -12 4 -18
-5 -18 -8 0 -27 -11 -43 -25 -16 -14 -39 -25 -50 -25 -31 0 -81 -34 -102 -68
-9 -17 -28 -35 -41 -41 -12 -6 -23 -14 -23 -19 0 -4 -9 -8 -19 -9 -13 -1 -20
7 -24 26 -7 31 -57 62 -88 54 -24 -7 -59 -50 -59 -73 0 -25 37 -68 61 -72 21
-3 21 -3 -3 -28 -48 -48 -99 -123 -94 -137 3 -8 1 -11 -4 -8 -5 3 -19 -9 -29
-26 -16 -27 -18 -36 -8 -48 10 -14 10 -14 -4 -3 -14 10 -19 8 -34 -14 -12 -18
-13 -24 -4 -19 8 4 4 -2 -7 -12 -12 -10 -33 -35 -46 -56 -40 -60 -128 -147
-186 -184 -30 -19 -92 -52 -138 -74 -96 -43 -149 -92 -158 -144 -8 -39 -1 -59
17 -48 8 4 7 1 -1 -9 -24 -30 17 -69 85 -83 13 -2 23 0 23 6 0 5 3 8 8 8 27
-4 47 7 98 56 32 30 64 55 72 55 9 0 12 6 8 17 -5 16 -5 16 7 2 7 -9 28 -20
47 -24 19 -4 41 -12 48 -17 8 -7 12 -7 12 2 0 7 7 10 15 6 22 -8 67 15 61 31
-3 8 -1 11 4 8 6 -4 19 4 30 17 20 24 26 43 11 33 -5 -3 -12 -2 -15 3 -2 4 5
9 17 9 11 1 24 9 29 17 4 8 24 24 43 36 23 14 32 26 29 38 -5 13 -4 14 4 3 8
-11 14 -10 38 5 43 27 84 66 78 75 -3 5 2 6 10 3 9 -3 16 -2 16 3 0 5 14 23
30 42 17 18 28 36 25 41 -3 5 0 12 6 16 8 4 9 3 5 -4 -4 -7 -2 -12 3 -12 6 0
11 4 11 9 0 5 6 11 13 14 8 3 12 -9 12 -44 0 -41 5 -54 31 -80 62 -61 164 -47
200 29 35 75 -8 164 -87 177 -45 8 -43 10 41 68 64 43 127 98 130 112 1 6 4
12 7 15 4 3 3 -1 -2 -9 -5 -9 -3 -12 6 -9 8 3 13 11 11 17 -1 7 1 10 5 8 5 -3
24 10 43 29 19 19 40 34 47 34 27 0 65 25 85 57 20 34 24 71 14 168 -4 39 -38
81 -57 69 -5 -3 -9 -1 -9 4 0 4 -21 9 -46 11 -25 1 -56 6 -70 11 -20 8 -22 13
-15 32 11 29 -1 61 -31 82 -30 21 -50 20 -83 -5z m105 -154 c6 -3 35 -8 65
-10 54 -4 102 -21 91 -33 -4 -3 -12 0 -18 6 -30 30 -132 0 -157 -46 -30 -55
-18 -127 26 -162 14 -11 23 -23 20 -27 -4 -3 -1 -13 6 -22 10 -14 10 -14 -4
-4 -13 10 -22 6 -57 -25 -22 -20 -59 -50 -81 -66 -22 -16 -37 -34 -34 -39 3
-6 1 -7 -5 -3 -6 4 -35 -10 -64 -30 -49 -35 -51 -36 -35 -11 48 74 -2 181 -88
187 -52 4 -63 1 -94 -26 -112 -94 -3 -264 134 -209 11 5 -2 -9 -30 -30 -27
-21 -60 -48 -73 -60 l-24 -22 -23 23 c-43 43 -109 21 -121 -41 -4 -23 0 -36
18 -55 26 -27 33 -61 12 -53 -8 3 -14 0 -14 -6 0 -6 -3 -10 -7 -9 -14 4 -73
-32 -73 -44 0 -6 -3 -9 -6 -5 -8 8 -34 -18 -34 -33 0 -6 -5 -8 -12 -4 -8 5 -9
2 -5 -10 4 -9 3 -15 -2 -12 -13 8 -34 -21 -25 -35 4 -7 3 -9 -3 -6 -6 4 -18
-4 -27 -18 -19 -29 -67 -34 -110 -11 -27 14 -75 9 -108 -10 -37 -22 -88 -75
-82 -86 4 -6 3 -8 -3 -5 -6 4 -23 1 -37 -7 -55 -28 -105 11 -92 72 8 34 53 78
90 88 13 3 27 12 30 21 3 8 10 12 16 8 14 -9 52 14 44 27 -5 7 -2 8 5 3 22
-13 126 49 115 67 -4 7 -2 8 5 4 6 -4 21 2 34 13 12 11 33 30 45 40 13 11 21
25 17 31 -3 6 -2 9 4 8 13 -4 71 62 71 80 0 6 4 12 9 12 5 0 22 21 37 48 15
26 32 50 37 53 5 4 6 13 2 20 -5 8 -5 11 0 7 5 -5 19 8 32 28 18 26 22 39 14
48 -8 9 -7 13 4 13 8 0 12 -5 9 -11 -7 -14 25 23 51 60 11 15 19 31 18 35 -2
5 4 6 12 3 14 -6 20 6 16 29 -1 5 3 6 9 2 6 -3 24 7 40 24 17 16 30 27 30 24
0 -3 11 2 25 11 23 15 25 15 40 -17 42 -89 178 -89 220 -1 26 54 13 118 -29
153 -17 14 -22 36 -7 26 5 -3 13 -1 16 5 17 27 87 42 115 25z m-403 -190 c0
-8 -4 -12 -9 -9 -5 3 -6 10 -3 15 9 13 12 11 12 -6z m-143 -143 c3 -5 -1 -9
-9 -9 -8 0 -12 4 -9 9 3 4 7 8 9 8 2 0 6 -4 9 -8z"/>
<path d="M449 587 c-27 -21 -31 -51 -9 -75 23 -24 58 -22 78 5 17 24 15 40 -8
63 -23 23 -38 25 -61 7z"/>
<path d="M1853 1402 c-13 -2 -25 -15 -32 -33 -9 -25 -7 -33 9 -49 25 -25 52
-25 75 0 34 37 0 91 -52 82z"/>
<path d="M437 1382 c-22 -24 -21 -45 1 -65 49 -44 118 17 75 65 -21 23 -55 23
-76 0z"/>
<path d="M1565 1258 c-14 -13 -28 -34 -30 -48 -5 -29 18 -68 47 -79 18 -6 13
-11 -33 -29 -30 -12 -69 -24 -88 -27 -59 -10 -94 -35 -111 -80 -14 -37 -13
-62 7 -102 20 -43 87 -77 130 -67 38 9 128 79 153 119 20 33 77 85 93 85 4 0
5 5 2 10 -3 6 -2 10 4 10 21 0 1 56 -30 85 -27 24 -33 37 -31 61 6 65 -64 104
-113 62z m136 -190 c7 -14 6 -16 -6 -12 -10 4 -30 -10 -58 -39 l-43 -44 -21
37 -20 38 23 10 c36 17 74 54 67 66 -4 6 6 0 21 -14 15 -14 31 -33 37 -42z
m-131 7 c0 -2 -9 -3 -19 -2 -11 0 -18 5 -15 9 4 6 34 0 34 -7z m54 -113 c3 -5
-1 -9 -9 -9 -8 0 -12 4 -9 9 3 4 7 8 9 8 2 0 6 -4 9 -8z"/>
<path d="M1812 1012 c-31 -5 -56 -45 -48 -77 13 -52 96 -58 118 -10 21 46 -19
96 -70 87z"/>
<path d="M476 987 c-17 -17 -22 -31 -19 -51 6 -30 36 -56 61 -51 9 2 20 4 24
4 4 1 14 8 22 17 24 23 20 70 -6 88 -31 22 -55 20 -82 -7z"/>
<path d="M256 969 c-27 -40 13 -81 52 -53 26 18 28 37 6 58 -21 22 -40 20 -58
-5z"/>
<path d="M2033 983 c-19 -7 -16 -60 3 -67 29 -11 44 -6 56 19 18 39 -15 66
-59 48z"/>
<path d="M1259 805 c-34 -18 -58 -55 -63 -97 -12 -98 94 -169 183 -124 85 44
84 175 -2 223 -29 16 -86 15 -118 -2z"/>
<path d="M1559 752 c-32 -27 -30 -78 4 -108 47 -40 117 -10 117 51 0 64 -70
97 -121 57z"/>
<path d="M1838 589 c-21 -12 -24 -59 -6 -77 15 -15 61 -15 76 0 18 18 15 53
-6 71 -21 19 -39 21 -64 6z"/>
<path d="M1134 510 c-32 -13 -47 -65 -29 -100 33 -64 127 -41 133 32 2 29 -2
40 -24 57 -28 22 -46 25 -80 11z"/>
<path d="M830 441 c-35 -9 -54 -51 -38 -85 22 -50 101 -43 114 10 12 46 -30
87 -76 75z"/>
<path d="M1473 440 c-44 -18 -44 -85 0 -110 24 -13 30 -13 55 0 68 38 17 139
-55 110z"/>
<path d="M700 205 c-15 -18 -10 -45 13 -59 34 -22 73 27 47 59 -16 19 -44 19
-60 0z"/>
<path d="M1580 201 c-14 -28 18 -66 48 -57 26 9 38 42 22 61 -18 21 -57 18
-70 -4z"/>
<path d="M1138 186 c-27 -20 -23 -70 7 -86 20 -11 28 -10 50 4 27 18 34 57 13
74 -23 18 -53 21 -70 8z"/>
</g>
</svg>
