<svg height="552" viewBox="0 0 604 552" width="604" xmlns="http://www.w3.org/2000/svg"><g stroke="#000"><g opacity=".5" stroke="#000" stroke-opacity=".083" transform="matrix(1.42 0 0 1.42 71 59)"><path d="m103 172a25.3 25.3 0 0 0 23.8 26.6h1.46a25.3 25.3 0 1 0 -25.2-26.6z"/><path d="m8.62 166a8.16 8.16 0 1 0 7.69 8.61 8.15 8.15 0 0 0 -7.69-8.61z"/><path d="m101 25.4a8.16 8.16 0 1 0 -11-3.62 8.18 8.18 0 0 0 11 3.62z"/><path d="m127 70.1a12.6 12.6 0 1 0 -16.9-5.59 12.6 12.6 0 0 0 16.9 5.59z"/><path d="m40.6 101a10.4 10.4 0 1 0 -3-14.4 10.4 10.4 0 0 0 3 14.4z"/><path d="m55.9 161a12.6 12.6 0 1 0 11.9 13.3 12.6 12.6 0 0 0 -11.9-13.3z"/><path d="m42 246a10.4 10.4 0 1 0 14 4.6 10.4 10.4 0 0 0 -14-4.6z"/><path d="m91 135a14.8 14.8 0 1 0 -4.27-20.6 14.8 14.8 0 0 0 4.27 20.6z"/><path d="m246 69.1a12.6 12.6 0 1 0 -3.63-17.5 12.6 12.6 0 0 0 3.63 17.5z"/><path d="m272 24.6a8.16 8.16 0 1 0 -2.35-11.3 8.16 8.16 0 0 0 2.35 11.3z"/><path d="m248 148a25.3 25.3 0 0 0 -2.87 50.4h1.45a25.2 25.2 0 0 0 1.42-50.5z"/><path d="m135 133a25.1 25.1 0 0 0 22.6 13.9 25.2 25.2 0 0 0 22.5-36.6 25.3 25.3 0 1 0 -45.1 22.7z"/><path d="m333 101a10.4 10.4 0 1 0 -14-4.6 10.4 10.4 0 0 0 14 4.6z"/><path d="m269 109a14.8 14.8 0 1 0 19.9 6.58 14.9 14.9 0 0 0 -19.9-6.58z"/><path d="m187 20.8a10.4 10.4 0 1 0 -9.79-11 10.4 10.4 0 0 0 9.79 11z"/><path d="m186 86.1a14.8 14.8 0 1 0 -14-15.7 14.8 14.8 0 0 0 14 15.7z"/><path d="m106 238a14.8 14.8 0 1 0 -19.9-6.58 14.8 14.8 0 0 0 19.9 6.58z"/><path d="m196 108a25.2 25.2 0 1 0 21.1-11.4 25.3 25.3 0 0 0 -21.1 11.4z"/><path d="m240 213a25.3 25.3 0 1 0 -11.2 33.9 25.1 25.1 0 0 0 11.2-33.9z"/><path d="m284 212a14.8 14.8 0 1 0 4.27 20.6 14.8 14.8 0 0 0 -4.27-20.6z"/><path d="m332 174a12.6 12.6 0 1 0 -13.3 11.9 12.6 12.6 0 0 0 13.3-11.9z"/><path d="m367 165a8.16 8.16 0 1 0 7.69 8.61 8.17 8.17 0 0 0 -7.69-8.61z"/><path d="m334 246a10.4 10.4 0 1 0 3 14.4 10.4 10.4 0 0 0 -3-14.4z"/><path d="m103 322a8.16 8.16 0 1 0 2.34 11.3 8.17 8.17 0 0 0 -2.34-11.3z"/><path d="m274 321a8.16 8.16 0 1 0 11 3.62 8.16 8.16 0 0 0 -11-3.62z"/><path d="m179 239a25.2 25.2 0 1 0 -21.1 11.4 25.1 25.1 0 0 0 21.1-11.4z"/><path d="m129 277a12.6 12.6 0 1 0 3.63 17.5 12.6 12.6 0 0 0 -3.63-17.5z"/><path d="m187 326a10.4 10.4 0 1 0 9.78 11 10.4 10.4 0 0 0 -9.78-11z"/><path d="m187 260a14.8 14.8 0 1 0 14 15.7 14.8 14.8 0 0 0 -14-15.7z"/><path d="m248 276a12.6 12.6 0 1 0 17 5.59 12.6 12.6 0 0 0 -17-5.59z"/></g><g fill="none" stroke-opacity=".736" stroke-width="15.1" transform="translate(-110 -101)"><path d="m231 490c22.5-22.5 38.9-50.2 56.3-76.8s36.6-53 63-70.8c17.7-12 38.2-19.7 54.9-33.1 8.15-6.56 15.3-14.4 23.8-20.5 4.24-3.06 8.84-5.68 13.8-7.35 4.96-1.66 10.3-2.34 15.5-1.51 6.51 1.05 12.5 4.42 18.9 5.68 5.39 1.05 10.9.61 16.4.726 5.49.117 11.2.888 15.7 4.01 3.32 2.29 5.76 5.73 7.12 9.52s1.66 7.92 1.18 11.9c-.96 8-4.93 15.3-9.25 22.1-19.1 30-46.2 54.1-74.7 75.3-31.7 23.6-65.9 44.6-91.9 74.2-6.48 7.4-12.4 15.3-19.9 21.8-7.64 6.62-16.6 11.5-25.3 16.6-8.71 5.13-17.4 10.7-23.9 18.4-5.46 6.43-9.24 14.1-14.4 20.8-2.57 3.35-5.49 6.46-8.95 8.87s-7.5 4.09-11.7 4.41c-5.38.408-10.7-1.4-15.7-3.32-5.04-1.93-10.1-4.03-15.5-4.25-6.22-.259-12.3 2.04-17.5 5.42-5.22 3.38-9.67 7.81-14 12.2-4.35 4.44-8.69 8.96-13.7 12.6-5.06 3.62-10.9 6.34-17.2 6.67-5.87.313-11.8-1.58-16.5-5.2s-7.91-8.92-9.1-14.7c-1.31-6.31-.143-13 2.67-18.8 2.82-5.8 7.2-10.7 12.2-14.8 10.1-8.03 22.5-12.4 34.3-17.6 23.4-10.3 45.3-24.5 63.4-42.6z" opacity=".5"/><path d="m559 369c3.57-1.58 7.13-3.23 10.4-5.34 3.28-2.11 6.3-4.71 8.53-7.92.915-1.32 1.69-2.74 2.71-3.98s2.34-2.31 3.91-2.65c1.06-.227 2.17-.103 3.19.257s1.95.948 2.78 1.64c1.66 1.38 2.95 3.16 4.44 4.73 2.25 2.36 4.96 4.24 7.24 6.57 1.14 1.16 2.17 2.45 2.92 3.89s1.22 3.06 1.2 4.69c-.0252 1.87-.695 3.69-1.72 5.25-1.03 1.56-2.41 2.87-3.9 3.98-2.99 2.24-6.48 3.74-9.52 5.91-3.67 2.61-6.61 6.12-9.25 9.78s-5.01 7.5-7.79 11c-9.23 11.7-23.1 19.8-37.9 21.8-6.45.858-13.4.504-18.9-2.84-5.04-3.02-8.57-8.39-9.47-14.2-.538-3.48-.172-7.08.947-10.4 2.34-6.97 7.82-12.5 14-16.5s13.2-6.45 20.1-9.1c5.41-2.09 10.8-4.28 16.1-6.63z" opacity=".5"/><path d="m544 222c.397-1.67 1.63-3.06 3.11-3.92 1.49-.854 3.21-1.21 4.92-1.33 3.42-.222 6.92.501 10.3-.276 2.81-.654 5.31-2.35 7.28-4.46s3.45-4.63 4.72-7.22c2.55-5.18 4.47-10.9 8.51-15 3.4-3.47 8-5.49 12.6-6.97 4.62-1.48 9.41-2.51 13.9-4.39 7.06-2.97 13.1-7.96 18.6-13.3s10.6-11.1 16.4-16c10.5-8.87 23.3-15.1 32.2-25.6 3.34-3.93 6.13-8.48 10.4-11.4 3.31-2.22 7.4-3.29 11.4-2.84 1.32.149 2.63.465 3.8 1.08 1.18.612 2.21 1.53 2.82 2.71.783 1.5.818 3.31.382 4.95s-1.31 3.12-2.28 4.52c-4.47 6.42-11 11.1-16.1 17-7.23 8.49-11.2 19.3-13.3 30.3-.589 3.17-1.03 6.37-1.89 9.47-1.93 6.94-5.94 13.2-10.8 18.5-4.9 5.28-10.7 9.66-16.6 13.7-12.2 8.37-25.2 15.6-36.9 24.6-3.26 2.52-6.43 5.2-10 7.24-3.58 2.05-7.65 3.45-11.8 3.17-2.85-.195-5.63-1.21-7.95-2.87-2.32-1.67-4.17-3.97-5.3-6.59-.588-1.35-.991-2.8-1.04-4.28-.0488-1.48.27-2.98 1.04-4.24.856-1.4 2.23-2.44 3.73-3.11 1.5-.672 3.13-1.01 4.75-1.24 1.63-.232 3.27-.367 4.88-.664 1.62-.298 3.22-.766 4.63-1.62 2.43-1.46 4.06-3.92 5.5-6.37 1.44-2.44 2.8-5 4.92-6.89 1.6-1.42 3.54-2.39 5.53-3.17 1.99-.778 4.05-1.38 6.03-2.18 1.98-.798 3.91-1.81 5.47-3.28 1.55-1.47 2.7-3.45 2.85-5.58.128-1.79-.486-3.64-1.73-4.93-.623-.646-1.39-1.15-2.24-1.45-.847-.298-1.77-.387-2.65-.245-1.22.195-2.35.822-3.26 1.66s-1.62 1.87-2.19 2.96c-1.16 2.18-1.82 4.61-3.07 6.74-2.22 3.79-6.08 6.32-10 8.27-3.94 1.95-8.11 3.47-11.8 5.93-6.31 4.26-10.6 11.1-17 15.1-2.82 1.8-6.04 3.03-9.37 3.29s-6.79-.485-9.56-2.35c-1.25-.837-2.36-1.91-3.09-3.22-.728-1.31-1.04-2.89-.694-4.35z" opacity=".5"/></g></g></svg>